<svg width="61" height="61" viewBox="0 0 61 61" fill="none" xmlns="http://www.w3.org/2000/svg">
<mask id="path-1-inside-1" fill="white">
<path d="M37.5016 6.94023L11.531 7.74108C11.531 7.74108 7.09132 6.52914 5.93759 11.2772C5.46144 13.2368 5.97569 14.9083 5.97569 14.9083L16.9825 50.4258C18.0691 53.6807 22.2638 52.8273 22.2638 52.8273L54.0626 45.8845L53.2609 44.5465C53.3253 43.1893 53.7629 40.7534 55.9572 39.3937C56.0061 39.3631 56.0267 39.3102 56.0598 39.2652L57.0587 39.121L37.5016 6.94023ZM20.2512 21.9535L17.5408 13.9857L36.8198 13.0379L40.4801 19.6649L20.2512 21.9535V21.9535ZM52.9685 41.7075C52.8075 42.1122 52.6783 42.513 52.5917 42.8971L31.7736 47.2211L52.437 43.8234C52.4201 43.9727 52.4011 44.1224 52.392 44.2591L25.6566 50.0019L52.3711 45.1667L52.372 45.2268L22.5844 51.5082C22.5696 51.5133 21.1942 51.865 19.9735 51.5684C18.7674 51.2753 18.1663 50.4732 18.1332 49.1165C18.0474 45.6301 23.5031 44.9915 23.5854 44.9825L54.1738 39.7331C53.8867 40.0493 53.659 40.3866 53.4544 40.7286L33.8743 44.7301L52.9685 41.7075"/>
</mask>
<path d="M37.5016 6.94023L11.531 7.74108C11.531 7.74108 7.09132 6.52914 5.93759 11.2772C5.46144 13.2368 5.97569 14.9083 5.97569 14.9083L16.9825 50.4258C18.0691 53.6807 22.2638 52.8273 22.2638 52.8273L54.0626 45.8845L53.2609 44.5465C53.3253 43.1893 53.7629 40.7534 55.9572 39.3937C56.0061 39.3631 56.0267 39.3102 56.0598 39.2652L57.0587 39.121L37.5016 6.94023ZM20.2512 21.9535L17.5408 13.9857L36.8198 13.0379L40.4801 19.6649L20.2512 21.9535V21.9535ZM52.9685 41.7075C52.8075 42.1122 52.6783 42.513 52.5917 42.8971L31.7736 47.2211L52.437 43.8234C52.4201 43.9727 52.4011 44.1224 52.392 44.2591L25.6566 50.0019L52.3711 45.1667L52.372 45.2268L22.5844 51.5082C22.5696 51.5133 21.1942 51.865 19.9735 51.5684C18.7674 51.2753 18.1663 50.4732 18.1332 49.1165C18.0474 45.6301 23.5031 44.9915 23.5854 44.9825L54.1738 39.7331C53.8867 40.0493 53.659 40.3866 53.4544 40.7286L33.8743 44.7301L52.9685 41.7075" fill="#9DA2C8"/>
<path d="M37.5016 6.94023L38.3562 6.42089L38.0534 5.92274L37.4708 5.94071L37.5016 6.94023ZM11.531 7.74108L11.2677 8.70578L11.4121 8.74522L11.5618 8.7406L11.531 7.74108ZM5.97569 14.9083L5.0199 15.2023L5.0205 15.2043L5.97569 14.9083ZM16.9825 50.4258L16.0273 50.7218L16.0305 50.7322L16.0339 50.7425L16.9825 50.4258ZM22.2638 52.8273L22.4632 53.8072L22.4702 53.8058L22.4771 53.8043L22.2638 52.8273ZM54.0626 45.8845L54.2759 46.8615L55.6358 46.5646L54.9204 45.3706L54.0626 45.8845ZM53.2609 44.5465L52.262 44.499L52.2476 44.8011L52.403 45.0604L53.2609 44.5465ZM55.9572 39.3937L56.4839 40.2437L56.4871 40.2417L55.9572 39.3937ZM56.0598 39.2652L55.917 38.2755L55.5026 38.3353L55.2544 38.6725L56.0598 39.2652ZM57.0587 39.121L57.2015 40.1108L58.699 39.8946L57.9132 38.6017L57.0587 39.121ZM17.5408 13.9857L17.4917 12.9869L16.167 13.0521L16.5941 14.3078L17.5408 13.9857ZM36.8198 13.0379L37.6951 12.5544L37.3936 12.0085L36.7707 12.0391L36.8198 13.0379ZM40.4801 19.6649L40.5925 20.6585L42.0785 20.4904L41.3554 19.1814L40.4801 19.6649ZM52.5917 42.8971L52.795 43.8762L53.4256 43.7453L53.5672 43.117L52.5917 42.8971ZM31.7736 47.2211L31.5703 46.242L31.9359 48.2078L31.7736 47.2211ZM52.437 43.8234L53.4306 43.9364L53.5801 42.622L52.2748 42.8366L52.437 43.8234ZM52.392 44.2591L52.602 45.2368L53.3396 45.0784L53.3897 44.3255L52.392 44.2591ZM25.6566 50.0019L25.4466 49.0242L25.8347 50.986L25.6566 50.0019ZM52.3711 45.1667L53.371 45.1526L53.3543 43.9725L52.193 44.1827L52.3711 45.1667ZM52.372 45.2268L52.5783 46.2052L53.3835 46.0354L53.3719 45.2126L52.372 45.2268ZM22.5844 51.5082L22.378 50.5297L22.3167 50.5426L22.2575 50.5631L22.5844 51.5082ZM18.1332 49.1165L19.1329 49.0921L19.1329 49.0918L18.1332 49.1165ZM23.5854 44.9825L23.6936 45.9767L23.7242 45.9733L23.7545 45.9681L23.5854 44.9825ZM54.1738 39.7331L54.9141 40.4055L56.8659 38.2565L54.0047 38.7475L54.1738 39.7331ZM53.4544 40.7286L53.6546 41.7083L54.0862 41.6201L54.3124 41.2421L53.4544 40.7286ZM33.8743 44.7301L33.6741 43.7504L34.0307 45.7178L33.8743 44.7301ZM37.4708 5.94071L11.5002 6.74155L11.5618 8.7406L37.5324 7.93976L37.4708 5.94071ZM11.531 7.74108C11.7943 6.77637 11.7938 6.77623 11.7933 6.77609C11.7931 6.77603 11.7925 6.77588 11.7921 6.77577C11.7913 6.77555 11.7905 6.77532 11.7895 6.77506C11.7876 6.77455 11.7854 6.77397 11.783 6.77333C11.7781 6.77204 11.7721 6.77047 11.765 6.76867C11.7509 6.76507 11.7324 6.76051 11.7099 6.75521C11.6649 6.74462 11.6034 6.73105 11.5275 6.71639C11.376 6.68715 11.1647 6.65315 10.9097 6.63C10.4046 6.58413 9.70128 6.57836 8.94127 6.75442C8.17507 6.93191 7.33924 7.29766 6.60657 7.99945C5.87132 8.70371 5.29271 9.69601 4.96586 11.0411L6.90931 11.5134C7.15933 10.4844 7.56833 9.84768 7.99001 9.44377C8.41427 9.0374 8.90469 8.81586 9.39262 8.70282C9.88675 8.58836 10.3655 8.58881 10.7288 8.6218C10.9081 8.63808 11.0527 8.66167 11.1485 8.68015C11.1962 8.68936 11.2312 8.6972 11.2518 8.70204C11.2621 8.70446 11.2687 8.70612 11.2715 8.70681C11.2728 8.70716 11.2732 8.70727 11.2726 8.7071C11.2723 8.70702 11.2717 8.70687 11.2709 8.70665C11.2705 8.70654 11.27 8.70641 11.2695 8.70627C11.2692 8.7062 11.2687 8.70607 11.2686 8.70604C11.2681 8.70591 11.2677 8.70578 11.531 7.74108ZM4.96586 11.0411C4.69368 12.1613 4.70617 13.1891 4.78347 13.9312C4.82232 14.3042 4.87819 14.6111 4.92565 14.8292C4.94943 14.9384 4.97121 15.0259 4.98791 15.0889C4.99627 15.1204 5.00337 15.1458 5.00882 15.1648C5.01155 15.1743 5.01387 15.1823 5.01573 15.1885C5.01666 15.1916 5.01748 15.1944 5.01817 15.1967C5.01852 15.1978 5.01884 15.1989 5.01913 15.1998C5.01927 15.2003 5.01941 15.2007 5.01954 15.2011C5.0196 15.2014 5.01969 15.2017 5.01972 15.2018C5.01981 15.202 5.0199 15.2023 5.97569 14.9083C6.93148 14.6142 6.93156 14.6145 6.93164 14.6148C6.93167 14.6148 6.93174 14.6151 6.93179 14.6152C6.93189 14.6156 6.93198 14.6159 6.93206 14.6161C6.93223 14.6167 6.93236 14.6171 6.93246 14.6174C6.93267 14.6181 6.93276 14.6184 6.93273 14.6183C6.93267 14.6181 6.93216 14.6164 6.93124 14.6132C6.92939 14.6068 6.92591 14.5944 6.92113 14.5764C6.91157 14.5403 6.8969 14.4819 6.8799 14.4038C6.84583 14.2473 6.80289 14.0138 6.7727 13.724C6.71192 13.1404 6.70536 12.3527 6.90931 11.5134L4.96586 11.0411ZM5.0205 15.2043L16.0273 50.7218L17.9377 50.1298L6.93087 14.6123L5.0205 15.2043ZM16.0339 50.7425C16.74 52.8576 18.4848 53.6078 19.8694 53.834C20.5607 53.947 21.2009 53.94 21.6623 53.9073C21.8951 53.8907 22.0877 53.8672 22.2253 53.8472C22.2942 53.8372 22.3497 53.828 22.3898 53.821C22.4099 53.8174 22.4263 53.8144 22.4386 53.8121C22.4447 53.8109 22.4498 53.8099 22.454 53.8091C22.456 53.8087 22.4578 53.8083 22.4594 53.808C22.4601 53.8079 22.4608 53.8077 22.4615 53.8076C22.4618 53.8075 22.4622 53.8074 22.4624 53.8074C22.4628 53.8073 22.4632 53.8072 22.2638 52.8273C22.0645 51.8474 22.0649 51.8473 22.0652 51.8472C22.0653 51.8472 22.0656 51.8471 22.0658 51.8471C22.0662 51.847 22.0665 51.847 22.0668 51.8469C22.0673 51.8468 22.0676 51.8468 22.0676 51.8467C22.0677 51.8467 22.0668 51.8469 22.065 51.8473C22.0613 51.8479 22.054 51.8493 22.0431 51.8512C22.0213 51.8551 21.9856 51.861 21.9377 51.868C21.8416 51.882 21.698 51.8997 21.5206 51.9123C21.1614 51.9378 20.6851 51.9408 20.1919 51.8602C19.2075 51.6994 18.3115 51.2489 17.931 50.1092L16.0339 50.7425ZM22.4771 53.8043L54.2759 46.8615L53.8493 44.9076L22.0505 51.8503L22.4771 53.8043ZM54.9204 45.3706L54.1187 44.0325L52.403 45.0604L53.2048 46.3985L54.9204 45.3706ZM54.2597 44.5939C54.3199 43.3274 54.7245 41.3339 56.4839 40.2437L55.4305 38.5436C52.8012 40.1728 52.3308 43.0511 52.262 44.499L54.2597 44.5939ZM56.4871 40.2417C56.6822 40.1198 56.7928 39.9686 56.8416 39.8967C56.8542 39.8782 56.8645 39.8621 56.8713 39.8514C56.8747 39.8459 56.8778 39.841 56.8799 39.8376C56.8826 39.8333 56.8833 39.8321 56.8848 39.8299C56.8905 39.8206 56.881 39.8364 56.8652 39.8579L55.2544 38.6725C55.222 38.7165 55.1975 38.7558 55.1886 38.7701C55.1739 38.7937 55.181 38.7821 55.1872 38.773C55.2052 38.7465 55.2812 38.6369 55.4273 38.5456L56.4871 40.2417ZM56.2027 40.255L57.2015 40.1108L56.9158 38.1313L55.917 38.2755L56.2027 40.255ZM57.9132 38.6017L38.3562 6.42089L36.6471 7.45957L56.2041 39.6404L57.9132 38.6017ZM21.1979 21.6314L18.4876 13.6637L16.5941 14.3078L19.3044 22.2755L21.1979 21.6314ZM17.5899 14.9845L36.8689 14.0367L36.7707 12.0391L17.4917 12.9869L17.5899 14.9845ZM35.9444 13.5214L39.6047 20.1483L41.3554 19.1814L37.6951 12.5544L35.9444 13.5214ZM40.3677 18.6712L20.1387 20.9598L20.3636 22.9471L40.5925 20.6585L40.3677 18.6712ZM52.0394 41.3377C51.8631 41.7808 51.7165 42.2323 51.6162 42.6773L53.5672 43.117C53.6401 42.7937 53.7519 42.4435 53.8977 42.0772L52.0394 41.3377ZM52.3883 41.918L31.5703 46.242L31.977 48.2002L52.795 43.8762L52.3883 41.918ZM31.9359 48.2078L52.5993 44.8101L52.2748 42.8366L31.6114 46.2343L31.9359 48.2078ZM51.4435 43.7104C51.4288 43.8392 51.4053 44.0254 51.3942 44.1927L53.3897 44.3255C53.3968 44.2194 53.4113 44.1061 53.4306 43.9364L51.4435 43.7104ZM52.1819 43.2814L25.4466 49.0242L25.8666 50.9796L52.602 45.2368L52.1819 43.2814ZM25.8347 50.986L52.5492 46.1507L52.193 44.1827L25.4785 49.0179L25.8347 50.986ZM51.3712 45.1809L51.3721 45.2409L53.3719 45.2126L53.371 45.1526L51.3712 45.1809ZM52.1656 44.2483L22.378 50.5297L22.7907 52.4867L52.5783 46.2052L52.1656 44.2483ZM22.2575 50.5631C22.3193 50.5418 22.3621 50.5342 22.2938 50.5499C22.2632 50.5569 22.2148 50.5675 22.1518 50.5797C22.0252 50.6042 21.8432 50.6345 21.6284 50.6568C21.1853 50.7025 20.6638 50.7071 20.2096 50.5967L19.7374 52.5401C20.504 52.7264 21.2805 52.7034 21.834 52.6462C22.1174 52.6169 22.3584 52.5768 22.532 52.5432C22.619 52.5264 22.6901 52.5109 22.7423 52.4989C22.7568 52.4956 22.8458 52.4759 22.9112 52.4533L22.2575 50.5631ZM20.2096 50.5967C19.7787 50.492 19.5497 50.323 19.4134 50.1412C19.2697 49.9497 19.1461 49.6331 19.1329 49.0921L17.1335 49.1408C17.1534 49.9566 17.3469 50.7194 17.8136 51.3415C18.2875 51.9732 18.9622 52.3518 19.7374 52.5401L20.2096 50.5967ZM19.1329 49.0918C19.1059 47.9936 19.9228 47.2192 21.1971 46.6616C21.8007 46.3975 22.4209 46.2251 22.9031 46.1183C23.3835 46.0118 23.7033 45.9756 23.6936 45.9767L23.4771 43.9884C23.3997 43.9968 21.897 44.1723 20.3954 44.8293C18.9428 45.4649 17.0748 46.753 17.1335 49.1411L19.1329 49.0918ZM23.7545 45.9681L54.343 40.7187L54.0047 38.7475L23.4162 43.9969L23.7545 45.9681ZM53.4336 39.0608C53.0854 39.4441 52.8193 39.8424 52.5963 40.2151L54.3124 41.2421C54.4987 40.9308 54.6879 40.6544 54.9141 40.4055L53.4336 39.0608ZM53.2541 39.7488L33.6741 43.7504L34.0746 45.7099L53.6546 41.7083L53.2541 39.7488ZM34.0307 45.7178L53.1249 42.6952L52.8122 40.7198L33.718 43.7424L34.0307 45.7178Z" fill="#6668AA" mask="url(#path-1-inside-1)"/>
</svg>
