<?xml version="1.0" encoding="utf-8"?><svg viewBox="0 0 568 568" xmlns="http://www.w3.org/2000/svg" xmlns:xlink="http://www.w3.org/1999/xlink"><style>:root>svg{display:none}:root>svg:target{display:block}</style><svg viewBox="0 0 40 32" id="arrow" xmlns="http://www.w3.org/2000/svg"><g filter="url(#afilter0_d)"><path d="M11 12h18M25 8l4 4-4 4"/></g><defs><filter id="afilter0_d" x="-2" y="-5" width="44" height="44" filterUnits="userSpaceOnUse" color-interpolation-filters="sRGB"><feFlood flood-opacity="0" result="BackgroundImageFix"/><feColorMatrix in="SourceAlpha" values="0 0 0 0 0 0 0 0 0 0 0 0 0 0 0 0 0 0 127 0" result="hardAlpha"/><feOffset dy="5"/><feGaussianBlur stdDeviation="5"/><feColorMatrix values="0 0 0 0 0.179706 0 0 0 0 0.186361 0 0 0 0 0.385988 0 0 0 1 0"/><feBlend in2="BackgroundImageFix" result="effect1_dropShadow"/><feBlend in="SourceGraphic" in2="effect1_dropShadow" result="shape"/></filter></defs></svg><svg viewBox="0 0 17 17" id="arrow-right" xmlns="http://www.w3.org/2000/svg"><path d="M6.457 12.73l4.118-4.118-4.118-4.117" opacity=".1"/></svg><svg viewBox="0 0 61 61" id="book" xmlns="http://www.w3.org/2000/svg"><mask id="ca"><path d="M37.502 6.94l-25.971.801s-4.44-1.212-5.593 3.536c-.477 1.96.038 3.631.038 3.631l11.007 35.518c1.086 3.255 5.28 2.401 5.28 2.401l31.8-6.942-.802-1.338c.064-1.358.502-3.794 2.696-5.153.05-.03.07-.084.103-.129l.999-.144-19.557-32.18zm-17.25 15.013l-2.711-7.967 19.279-.948 3.66 6.627-20.229 2.288zm32.716 19.755c-.16.404-.29.805-.376 1.19L31.774 47.22l20.663-3.398c-.017.15-.036.3-.045.436l-26.735 5.743 26.714-4.835.001.06-29.788 6.281c-.014.005-1.39.357-2.61.06-1.207-.293-1.808-1.095-1.84-2.451-.087-3.487 5.37-4.125 5.451-4.134l30.589-5.25a6.148 6.148 0 00-.72.996l-19.58 4.001 19.094-3.022"/></mask><path d="M37.502 6.94l-25.971.801s-4.44-1.212-5.593 3.536c-.477 1.96.038 3.631.038 3.631l11.007 35.518c1.086 3.255 5.28 2.401 5.28 2.401l31.8-6.942-.802-1.338c.064-1.358.502-3.794 2.696-5.153.05-.03.07-.084.103-.129l.999-.144-19.557-32.18zm-17.25 15.013l-2.711-7.967 19.279-.948 3.66 6.627-20.229 2.288zm32.716 19.755c-.16.404-.29.805-.376 1.19L31.774 47.22l20.663-3.398c-.017.15-.036.3-.045.436l-26.735 5.743 26.714-4.835.001.06-29.788 6.281c-.014.005-1.39.357-2.61.06-1.207-.293-1.808-1.095-1.84-2.451-.087-3.487 5.37-4.125 5.451-4.134l30.589-5.25a6.148 6.148 0 00-.72.996l-19.58 4.001 19.094-3.022"/><path d="M37.502 6.94l.854-.52-.303-.497-.582.018.03 1zm-25.971.801l-.263.965.144.04.15-.005-.031-1zm-5.555 7.167l-.956.294v.002l.956-.296zm11.007 35.518l-.956.296.003.01.004.01.949-.316zm5.28 2.401l.2.98.007-.001.007-.002-.213-.977zm31.8-6.942l.213.977 1.36-.297-.716-1.194-.857.514zm-.802-1.338l-.999-.048-.014.302.155.26.858-.514zm2.696-5.153l.527.85.003-.002-.53-.848zm.103-.129l-.143-.99-.414.06-.249.337.806.593zm.999-.144l.143.99 1.497-.216-.786-1.293-.854.519zM17.54 13.986l-.05-1-1.324.066.427 1.256.947-.322zm19.279-.948l.875-.484-.301-.546-.623.031.049.999zm3.66 6.627l.113.994 1.485-.169-.723-1.309-.875.484zm12.112 23.232l.203.98.63-.132.142-.628-.975-.22zm-20.818 4.324l-.204-.979.366 1.966-.162-.987zm20.663-3.398l.994.113.15-1.314-1.306.215.162.986zm-.045.436l.21.978.738-.159.05-.753-.998-.066zm-26.735 5.743l-.21-.978.388 1.962-.178-.984zm26.714-4.835l1-.014-.017-1.18-1.161.21.178.984zm.001.06l.206.978.805-.17-.011-.822-1 .014zm-29.788 6.281l-.206-.978-.061.013-.06.02.327.945zm-4.45-2.392l.999-.024-1 .025zm5.451-4.133l.109.994.03-.004.03-.005-.169-.986zm30.589-5.25l.74.673 1.952-2.15-2.861.492.169.985zm-.72.996l.2.98.432-.089.226-.378-.858-.513zm-19.58 4.001l-.2-.98.357 1.968-.157-.988zm3.597-38.79l-25.97.802.06 1.999 25.971-.801-.061-2zM11.53 7.742l.262-.965h-.003l-.007-.003a1.982 1.982 0 00-.073-.018 6.278 6.278 0 00-.8-.125 6.287 6.287 0 00-1.969.124A4.95 4.95 0 006.607 8c-.736.705-1.314 1.697-1.641 3.042l1.943.472c.25-1.029.66-1.665 1.081-2.07a2.951 2.951 0 011.403-.74 4.29 4.29 0 011.336-.081 4.286 4.286 0 01.523.08l.02.005s.001 0 0 0h-.001-.002v-.001l.262-.965zm-6.565 3.3a8.572 8.572 0 00.05 4.147l.002.009.001.003v.001l.957-.293c.955-.294.956-.293.956-.293v.001a.028.028 0 000 .002.48.48 0 01-.01-.042 6.292 6.292 0 01-.148-.852 6.573 6.573 0 01.135-2.21l-1.943-.473zm.054 4.163l11.007 35.518 1.91-.592L6.932 14.612l-1.91.592zm11.014 35.538c.706 2.116 2.45 2.866 3.835 3.092a7.83 7.83 0 002.585-.025l.005-.001h.003l-.198-.98-.199-.98.002-.001h-.002l-.022.004-.105.017a5.833 5.833 0 01-1.746-.008c-.985-.16-1.88-.611-2.261-1.75l-1.897.633zm6.443 3.062l31.799-6.943-.427-1.953-31.798 6.942.426 1.954zm32.443-8.433l-.801-1.339-1.716 1.028.802 1.338 1.715-1.027zm-.66-.777c.06-1.267.465-3.26 2.224-4.35l-1.053-1.7c-2.63 1.629-3.1 4.507-3.169 5.955l1.998.095zm2.227-4.352a1.19 1.19 0 00.384-.39l.009-.014.005-.008-.02.028-1.61-1.185a1.51 1.51 0 00-.066.097l-.002.003a.811.811 0 01.24-.227l1.06 1.696zm-.284.013l.998-.144-.285-1.98-.999.145.286 1.979zm1.71-1.653L38.356 6.42 36.647 7.46l19.557 32.18 1.71-1.038zm-36.715-16.97l-2.71-7.968-1.894.644 2.71 7.968 1.894-.645zm-3.608-6.648l19.279-.947-.098-1.998-19.28.948.099 1.998zm18.354-1.463l3.66 6.627 1.751-.967-3.66-6.627-1.75.967zm4.424 5.15l-20.23 2.289.226 1.987 20.229-2.288-.225-1.988zm11.671 22.667a9.02 9.02 0 00-.423 1.34l1.951.439c.073-.323.185-.673.33-1.04l-1.858-.74zm.35.58L31.57 46.242l.407 1.958 20.818-4.324-.407-1.958zm-20.453 6.29l20.663-3.398-.324-1.973-20.664 3.397.325 1.974zm19.508-4.498c-.015.13-.039.315-.05.483l1.996.133c.007-.107.021-.22.04-.39l-1.986-.226zm.738-.429l-26.735 5.743.42 1.956 26.735-5.743-.42-1.956zm-26.347 7.705l26.714-4.835-.356-1.968-26.714 4.835.356 1.968zm25.536-5.805l.001.06 2-.028-.001-.06-2 .028zm.795-.933L22.378 50.53l.413 1.957 29.787-6.282-.412-1.957zm-29.908 6.315c.061-.021.104-.029.036-.013a6.116 6.116 0 01-.665.107c-.444.046-.965.05-1.42-.06l-.472 1.943c.767.186 1.544.163 2.097.106a8.077 8.077 0 00.908-.147c.015-.003.104-.023.17-.046l-.654-1.89zm-2.048.034c-.431-.105-.66-.274-.797-.456-.143-.191-.267-.508-.28-1.049l-2 .049c.02.816.214 1.578.68 2.2.475.632 1.15 1.01 1.924 1.2l.473-1.944zm-1.077-1.505c-.027-1.098.79-1.873 2.064-2.43a9.43 9.43 0 011.706-.544c.48-.106.8-.142.79-.141l-.216-1.989c-.077.009-1.58.184-3.082.841-1.452.636-3.32 1.924-3.261 4.312l1.999-.05zm4.622-3.124l30.588-5.25-.338-1.97-30.589 5.249.338 1.971zm29.679-6.907a7.13 7.13 0 00-.838 1.154l1.716 1.027c.187-.311.376-.588.602-.836l-1.48-1.345zm-.18.688l-19.58 4.001.4 1.96 19.58-4.002-.4-1.96zm-19.223 5.969l19.094-3.023-.313-1.975-19.094 3.022.313 1.976z" mask="url(#ca)"/></svg><svg viewBox="0 0 66 66" id="book-heart" xmlns="http://www.w3.org/2000/svg"><path d="M27.012 38H42V24c0-1.103-.897-2-2-2H27c-1.206 0-3 .799-3 3v14c0 2.201 1.794 3 3 3h15v-2H27.012C26.55 39.988 26 39.806 26 39c0-.101.009-.191.024-.273.112-.576.584-.717.988-.727zm2.636-10.358a2.224 2.224 0 013.125 0l.224.219.223-.219a2.225 2.225 0 013.126 0 2.128 2.128 0 010 3.069L32.998 34l-3.349-3.289a2.128 2.128 0 01-.001-3.069z"/><circle cx="32.708" cy="32.708" r="23.5" transform="rotate(119.509 32.708 32.708)"/><circle cx="13" cy="13" r="1"/><circle cx="48" cy="46" r="1"/><circle cx="17.5" cy="17.5" r=".5"/><circle cx="9.5" cy="18.5" r=".5"/><circle cx="12.5" cy="24.5" r=".5"/><circle cx="43.5" cy="50.5" r=".5"/><circle cx="50.5" cy="52.5" r=".5"/><defs><linearGradient id="dpaint0_linear" x1="33" y1="22" x2="33" y2="42" gradientUnits="userSpaceOnUse"><stop stop-color="#B0A04E"/><stop offset="1" stop-color="#CCC18A"/></linearGradient><linearGradient id="dpaint1_linear" x1="32.708" y1="8.708" x2="32.708" y2="56.708" gradientUnits="userSpaceOnUse"><stop stop-color="#B8A74D"/><stop offset="1" stop-color="#2C2E59"/></linearGradient></defs></svg><svg viewBox="0 0 17 17" id="chevron-right" xmlns="http://www.w3.org/2000/svg"><path d="M6.674 12.553l4.117-4.117-4.117-4.118" opacity=".7"/></svg><svg viewBox="0 0 56 56" id="crown" xmlns="http://www.w3.org/2000/svg"><path d="M39.563 36.25H16.437a1.06 1.06 0 01-.882-.48c-3.052-4.601-3.286-13.452-3.303-14.766a7.288 7.288 0 01-.002-.156c0-.605.477-1.097 1.066-1.098h.002c.588 0 1.066.49 1.068 1.094 0 .007 0 .072.003.187.094 3.125 2.596 5.637 5.657 5.637 3.12 0 5.66-2.61 5.66-5.82 0-.606.478-1.098 1.067-1.098h2.454c.59 0 1.068.492 1.068 1.098 0 3.21 2.539 5.82 5.66 5.82 3.064 0 5.567-2.516 5.657-5.645l.002-.179c.002-.605.48-1.094 1.068-1.094h.002c.589.001 1.066.492 1.066 1.098l-.001.156c-.018 1.314-.252 10.165-3.303 14.767-.2.3-.53.479-.883.479z"/><path d="M42.684 19.75h-.002c-.588 0-1.066.49-1.068 1.094 0 .007 0 .069-.003.179-.09 3.128-2.593 5.645-5.657 5.645-3.12 0-5.66-2.61-5.66-5.82 0-.606-.478-1.098-1.067-1.098H28v16.5h11.563c.353 0 .683-.18.882-.48 3.052-4.6 3.286-13.453 3.303-14.766l.002-.156c0-.605-.477-1.097-1.066-1.098z"/><path d="M28 16a3.754 3.754 0 00-3.75 3.75A3.754 3.754 0 0028 23.5a3.754 3.754 0 003.75-3.75A3.754 3.754 0 0028 16z"/><path d="M28 16v7.5a3.754 3.754 0 003.75-3.75A3.755 3.755 0 0028 16zM13.375 18.25C11.515 18.25 10 19.932 10 22s1.514 3.75 3.375 3.75S16.75 24.068 16.75 22s-1.514-3.75-3.375-3.75zM42.625 18.25c-1.861 0-3.375 1.682-3.375 3.75s1.514 3.75 3.375 3.75C44.485 25.75 46 24.068 46 22s-1.514-3.75-3.375-3.75zM39.672 40H16.328c-.595 0-1.078-.506-1.078-1.13V35.5h25.5v3.37c0 .624-.483 1.13-1.078 1.13z"/><path d="M28 40h11.672c.595 0 1.078-.506 1.078-1.13V35.5H28V40z"/><rect x=".5" y=".5" width="55" height="55" rx="7.5"/><defs><linearGradient id="fpaint0_linear" x1="56" y1="56" x2="-11" y2="4.5" gradientUnits="userSpaceOnUse"><stop stop-color="#F6844B"/><stop offset="1" stop-color="#2C2E59"/></linearGradient></defs></svg><svg viewBox="0 0 24 24" id="crown-apps" xmlns="http://www.w3.org/2000/svg"><g clip-path="url(#gclip0)"><path d="M19.196 17.28H4.385a.679.679 0 01-.565-.308c-1.955-2.947-2.104-8.616-2.116-9.457v-.1c0-.388.305-.702.682-.703h.001c.377 0 .683.313.684.7l.002.12c.06 2.002 1.662 3.61 3.623 3.61 1.999 0 3.625-1.671 3.625-3.727 0-.388.306-.703.684-.703h1.571c.378 0 .684.315.684.703 0 2.056 1.626 3.728 3.625 3.728 1.962 0 3.565-1.612 3.623-3.616l.002-.114a.694.694 0 01.684-.701c.378 0 .684.315.684.703l-.001.1c-.012.841-.162 6.51-2.116 9.457a.68.68 0 01-.565.307z"/><path d="M21.195 6.712h-.002a.694.694 0 00-.684.7l-.001.115c-.058 2.004-1.66 3.616-3.623 3.616-1.999 0-3.625-1.672-3.625-3.728a.694.694 0 00-.684-.703h-.786v10.567h7.406a.679.679 0 00.565-.307c1.954-2.947 2.104-8.616 2.116-9.457v-.1a.694.694 0 00-.682-.703z"/><path d="M11.79 4.31A2.404 2.404 0 009.39 6.712a2.404 2.404 0 002.401 2.402 2.404 2.404 0 002.402-2.402A2.405 2.405 0 0011.79 4.31z"/><path d="M11.79 4.31v4.804a2.405 2.405 0 002.402-2.402A2.405 2.405 0 0011.79 4.31zM2.424 5.751C1.232 5.751.262 6.83.262 8.153s.97 2.402 2.162 2.402 2.161-1.078 2.161-2.402-.97-2.402-2.161-2.402zM21.157 5.751c-1.192 0-2.162 1.078-2.162 2.402s.97 2.402 2.162 2.402 2.162-1.078 2.162-2.402-.97-2.402-2.162-2.402zM19.266 19.681H4.315c-.381 0-.69-.324-.69-.724V16.8h16.331v2.158c0 .4-.309.724-.69.724z"/><path d="M11.79 19.681h7.476c.381 0 .69-.324.69-.724V16.8h-8.165v2.882z"/></g><defs><clipPath id="gclip0"><path transform="translate(.262 .467)" d="M0 0h23.056v23.056H0z"/></clipPath></defs></svg><svg viewBox="0 0 6 5" id="down" xmlns="http://www.w3.org/2000/svg"><path d="M3 5L5.598.5H.402L3 5z"/></svg><svg viewBox="0 0 10 10" id="ellipse" xmlns="http://www.w3.org/2000/svg"><circle cx="5" cy="5" r="5"/></svg><svg viewBox="0 0 16 30" id="facebook" xmlns="http://www.w3.org/2000/svg"><path d="M12.997 4.981h2.739V.211C15.263.146 13.638 0 11.746 0c-3.95 0-6.654 2.484-6.654 7.049v4.2H.734v5.333h4.358V30h5.342V16.584h4.182l.663-5.333h-4.846V7.577c.001-1.541.416-2.596 2.564-2.596z"/></svg><svg viewBox="0 0 24 24" id="globe" xmlns="http://www.w3.org/2000/svg"><path d="M12 22c5.523 0 10-4.477 10-10S17.523 2 12 2 2 6.477 2 12s4.477 10 10 10zM2 12h20"/><path d="M12 2a15.3 15.3 0 014 10 15.3 15.3 0 01-4 10 15.3 15.3 0 01-4-10 15.3 15.3 0 014-10z"/></svg><svg viewBox="0 0 30 30" id="instagram" xmlns="http://www.w3.org/2000/svg"><path d="M20.625 0H9.375C4.198 0 0 4.198 0 9.375v11.25C0 25.802 4.198 30 9.375 30h11.25C25.802 30 30 25.802 30 20.625V9.375C30 4.198 25.802 0 20.625 0zm6.563 20.625a6.57 6.57 0 01-6.563 6.563H9.375a6.57 6.57 0 01-6.563-6.563V9.375a6.57 6.57 0 016.563-6.563h11.25a6.57 6.57 0 016.563 6.563v11.25z"/><path d="M15 7.5a7.5 7.5 0 10.001 15 7.5 7.5 0 000-15zm0 12.187A4.694 4.694 0 0110.313 15 4.693 4.693 0 0115 10.312 4.693 4.693 0 0119.688 15 4.694 4.694 0 0115 19.687zM23.063 7.937a1 1 0 100-1.998 1 1 0 000 1.998z"/></svg><svg viewBox="0 0 56 56" id="key" xmlns="http://www.w3.org/2000/svg"><rect x=".5" y=".5" width="55" height="55" rx="7.5"/><g clip-path="url(#mclip0)"><path d="M12.517 32.316a.866.866 0 01-.255-.616v-3.903a.87.87 0 111.74 0V31.7a.87.87 0 01-1.485.616zM16.76 32.316a.926.926 0 01-.276-.596l-.217-3.686a.714.714 0 01.774-.773.949.949 0 01.87.87l.217 3.686c.026.454-.32.8-.774.773a.925.925 0 01-.595-.274z"/><path d="M18.226 27.767a.841.841 0 00-.841-.841H13.12a.841.841 0 00-.84.84v2.899h5.945v-2.898z"/><path d="M42.074 28.737a5.142 5.142 0 00-.52-2.21 5.03 5.03 0 00.482-2.203c-.023-2.805-2.325-5.107-5.13-5.13-2.083-.018-4.181 1.043-6.235 3.154a19.087 19.087 0 00-1.568 1.841l-14.662-.123a2.19 2.19 0 00-2.212 2.213l.011 1.407.007.825 16.89.14c.397.525.945 1.198 1.602 1.873 2.09 2.143 4.206 3.241 6.29 3.258a4.992 4.992 0 005.045-5.045zm-5.524-2.253c.005.669.307 1.3.828 1.73a.638.638 0 01.233.486.614.614 0 01-.62.62c-1.199-.01-2.794-1.455-3.951-2.865 1.133-1.39 2.704-2.808 3.904-2.798a.63.63 0 01.443.186c.12.12.185.277.187.445a.61.61 0 01-.225.48 2.184 2.184 0 00-.799 1.716z"/><path d="M37.357 28.337c.145.12.228.295.229.48a.614.614 0 01-.616.617c-1.188-.005-2.761-1.43-3.901-2.82l-20.606-.086.006 1.392.003.816 16.723.069c.39.518.93 1.182 1.579 1.848 2.06 2.112 4.15 3.19 6.214 3.2a4.993 4.993 0 005.017-5.017 5.068 5.068 0 00-.507-2.187l-4.953-.02a2.22 2.22 0 00.812 1.708z"/></g><defs><linearGradient id="mpaint0_linear" x1="56" y1="56" x2="-11" y2="4.5" gradientUnits="userSpaceOnUse"><stop stop-color="#3BA7F5"/><stop offset="1" stop-color="#2C2E59"/></linearGradient><clipPath id="mclip0"><path transform="rotate(45 7.778 35.85)" d="M0 0h32v32H0z"/></clipPath></defs></svg><svg viewBox="0 0 68 66" id="lamp" xmlns="http://www.w3.org/2000/svg"><g clip-path="url(#nclip0)"><path d="M10.406 16.753a2.197 2.197 0 00.472 3.07l1.305.957a2.197 2.197 0 102.598-3.543l-1.305-.956a2.197 2.197 0 00-3.07.472zM29.558 5.21a2.233 2.233 0 00-1.867 2.546l.386 2.513a2.233 2.233 0 004.414-.679l-.386-2.513a2.233 2.233 0 00-2.547-1.867zM10.211 39.97a2.233 2.233 0 00-.679-4.414l-2.638.406a2.233 2.233 0 00.679 4.414l2.638-.406zm33.79 8.494c-.19-1.236.31-2.434 1.158-3.278a16.135 16.135 0 003.566-5.365c1.056-2.567 1.367-5.268.93-8.113-.663-4.308-2.745-7.74-6.262-10.319-3.517-2.58-7.415-3.534-11.724-2.871-4.308.662-7.739 2.744-10.318 6.262-2.58 3.517-3.534 7.415-2.872 11.723.438 2.848 1.527 5.335 3.267 7.473a15.178 15.178 0 005.03 4.038c1.084.544 1.943 1.546 2.136 2.8l.964 6.272a4.5 4.5 0 005.132 3.764l6.198-.954a4.5 4.5 0 003.764-5.132l-.969-6.3zm11.91-17.782a2.233 2.233 0 002.546 1.867l2.639-.406a2.233 2.233 0 10-.68-4.414l-2.638.406a2.233 2.233 0 00-1.867 2.546zm-8.634-18.455a2.169 2.169 0 003.481 2.587l.974-1.292a2.18 2.18 0 10-3.498-2.6l-.957 1.304z"/></g><defs><clipPath id="nclip0"><path transform="scale(1 -1) rotate(8.744 432.075 23.914)" d="M0 0h60v56.949H0z"/></clipPath></defs></svg><svg viewBox="0 0 25 24" id="maximize" xmlns="http://www.w3.org/2000/svg"><path d="M15.505 3.164h5.865V9.03M9.64 20.758H3.777v-5.865"/></svg><svg viewBox="-59 -13 426 426.667" id="pause" xmlns="http://www.w3.org/2000/svg"><path d="M117.75 0h-108C2.855.02-2.73 5.605-2.75 12.5v375c.02 6.895 5.605 12.48 12.5 12.5h108c6.898-.02 12.477-5.605 12.5-12.5v-375c-.023-6.895-5.602-12.48-12.5-12.5zm-12.5 375h-83V25h83zm0 0M293.371 0H185.246c-6.894.02-12.48 5.605-12.5 12.5v375c.02 6.895 5.606 12.48 12.5 12.5H293.25c6.895-.02 12.48-5.605 12.5-12.5v-375A12.355 12.355 0 00293.371 0zm-12.5 375h-83.125V25h83.004v350zm0 0"/></svg><svg viewBox="0 0 66 66" id="people" xmlns="http://www.w3.org/2000/svg"><path d="M36.6 27.2a3.6 3.6 0 11-7.2 0 3.6 3.6 0 017.2 0zM42.6 29.6a2.4 2.4 0 11-4.8 0 2.4 2.4 0 014.8 0zM37.8 38a4.8 4.8 0 00-9.6 0v3.6h9.6V38zM28.2 29.6a2.4 2.4 0 11-4.8 0 2.4 2.4 0 014.8 0zM40.2 41.6V38a7.168 7.168 0 00-.9-3.487A3.606 3.606 0 0143.8 38v3.6h-3.6zM26.7 34.513A7.167 7.167 0 0025.8 38v3.6h-3.6V38a3.6 3.6 0 014.5-3.487z"/><circle cx="32.708" cy="32.708" r="23.5" transform="rotate(119.509 32.708 32.708)"/><circle cx="7" cy="42" r="1"/><circle cx="20" cy="47" r="1"/><circle cx="24" cy="7" r="1"/><circle cx="16.5" cy="16.5" r=".5"/><circle cx="18.5" cy="10.5" r=".5"/><circle cx="12.5" cy="48.5" r=".5"/><defs><linearGradient id="qpaint0_linear" x1="33" y1="23.6" x2="33" y2="30.8" gradientUnits="userSpaceOnUse"><stop stop-color="#EF777B"/><stop offset="1" stop-color="#F08F92"/></linearGradient><linearGradient id="qpaint1_linear" x1="40.2" y1="27.2" x2="40.2" y2="32" gradientUnits="userSpaceOnUse"><stop stop-color="#EF777B"/><stop offset="1" stop-color="#F08F92"/></linearGradient><linearGradient id="qpaint2_linear" x1="33" y1="33.2" x2="33" y2="41.6" gradientUnits="userSpaceOnUse"><stop stop-color="#EF777B"/><stop offset="1" stop-color="#F08F92"/></linearGradient><linearGradient id="qpaint3_linear" x1="25.8" y1="27.2" x2="25.8" y2="32" gradientUnits="userSpaceOnUse"><stop stop-color="#EF777B"/><stop offset="1" stop-color="#F08F92"/></linearGradient><linearGradient id="qpaint4_linear" x1="41.55" y1="34.4" x2="41.55" y2="41.6" gradientUnits="userSpaceOnUse"><stop stop-color="#EF777B"/><stop offset="1" stop-color="#F08F92"/></linearGradient><linearGradient id="qpaint5_linear" x1="24.45" y1="34.398" x2="24.45" y2="41.6" gradientUnits="userSpaceOnUse"><stop stop-color="#EF777B"/><stop offset="1" stop-color="#F08F92"/></linearGradient><linearGradient id="qpaint6_linear" x1="32.708" y1="8.708" x2="32.708" y2="56.708" gradientUnits="userSpaceOnUse"><stop stop-color="#FF7D7D"/><stop offset="1" stop-color="#2C2E59"/></linearGradient></defs></svg><svg viewBox="0 0 33 37" id="play" xmlns="http://www.w3.org/2000/svg"><path d="M31.278 17.435a1.706 1.706 0 010 2.955L3.128 36.642c-1.137.657-2.56-.164-2.56-1.477V2.66a1.706 1.706 0 012.56-1.477l28.15 16.252z" fill-opacity=".81"/></svg><svg id="plus" version="1.1" viewBox="0 0 512 512" xml:space="preserve" xmlns="http://www.w3.org/2000/svg"><style>.sst0{fill:#231f20}</style><path class="sst0" d="M381 236H276V131c0-11-9-20-20-20s-20 9-20 20v105H131c-11 0-20 9-20 20s9 20 20 20h105v105c0 11 9 20 20 20s20-9 20-20V276h105c11 0 20-9 20-20s-9-20-20-20z"/></svg><svg viewBox="0 0 24 24" id="search" xmlns="http://www.w3.org/2000/svg"><path d="M11 19a8 8 0 100-16 8 8 0 000 16zM21 21l-4.35-4.35"/></svg><svg viewBox="0 0 56 56" id="star" xmlns="http://www.w3.org/2000/svg"><rect x=".5" y=".5" width="55" height="55" rx="7.5"/><path d="M40.34 28.7c2.401-2.037 3.602-3.056 3.284-4.016-.318-.96-1.89-1.062-5.031-1.265l-3.78-.244c-.919-.059-1.379-.088-1.73-.344-.351-.255-.522-.683-.863-1.538l-1.447-3.63c-1.18-2.96-1.77-4.44-2.787-4.44s-1.607 1.48-2.787 4.439l-1.447 3.63c-.341.857-.512 1.284-.863 1.54-.351.255-.811.284-1.73.344l-3.768.243c-3.136.203-4.704.305-5.022 1.264-.319.96.878 1.978 3.271 4.015l2.948 2.508c.693.59 1.04.885 1.17 1.294.13.41.017.85-.208 1.732l-.965 3.785c-.788 3.095-1.183 4.642-.36 5.24.824.598 2.174-.256 4.872-1.964l3.284-2.079c.78-.493 1.17-.74 1.605-.74.435 0 .825.247 1.604.74l3.285 2.08c2.698 1.707 4.047 2.561 4.871 1.963.824-.598.43-2.145-.36-5.24l-.964-3.782c-.225-.883-.337-1.325-.207-1.734.13-.41.478-.705 1.173-1.294l2.953-2.507z"/><path d="M37.388 31.207c-.695.59-1.042.884-1.173 1.294-.13.41-.018.85.207 1.734l.964 3.782c.79 3.095 1.184 4.642.36 5.24-.824.598-2.173-.256-4.871-1.964l-3.494-2.21c-.682-.433-1.023-.649-1.21-.987-.185-.337-.185-.741-.185-1.549V22.56c0-3.092 0-4.639.372-5.063a1.5 1.5 0 011.809-.347c.503.256 1.076 1.692 2.22 4.565.178.444.266.665.404.839a1.5 1.5 0 00.647.47c.208.077.446.093.923.123l4.232.273c3.142.203 4.713.305 5.03 1.265.319.96-.882 1.979-3.282 4.016l-2.953 2.507z"/><defs><linearGradient id="upaint0_linear" x1="56" y1="56" x2="-11" y2="4.5" gradientUnits="userSpaceOnUse"><stop stop-color="#3BF5BD"/><stop offset="1" stop-color="#2C2E59"/></linearGradient></defs></svg><svg viewBox="0 0 66 66" id="teache" xmlns="http://www.w3.org/2000/svg"><path d="M35.142 30.243c.144 0 .282.023.415.061l2.485-3.045a.457.457 0 01.645-.067.445.445 0 01.057.625l-2.457 3.012c.167.23.267.515.267.822 0 .572-.343 1.066-.833 1.286h9.639a.64.64 0 00.64-.64V24.19a.64.64 0 00-.64-.64H33.116a.64.64 0 00-.64.64v5.323l.579.732h2.087v-.002zM27.156 26.744a2.623 2.623 0 100-5.246 2.623 2.623 0 000 5.246z"/><path d="M29.846 43.861a.64.64 0 01-.64.64h-1.077a.64.64 0 01-.64-.64v-5.368a.343.343 0 00-.686 0v5.343c0 .366-.3.666-.666.666h-1.053a.64.64 0 01-.64-.64L24.438 30.9a.318.318 0 10-.635 0v4.984a.64.64 0 01-.64.64h-.523a.64.64 0 01-.64-.64v-6.833c0-.812.658-1.468 1.468-1.468H29.3c.625 0 1.216.287 1.606.776l1.567 1.977.33.418s1.486 0 2.342.003a.64.64 0 01.64.64v.51a.64.64 0 01-.64.64h-2.772a.892.892 0 01-.701-.34l-1.168-1.502a.319.319 0 00-.251-.123h-.08a.318.318 0 00-.317.318l-.01 12.96z"/><circle cx="32.708" cy="32.708" r="23.5" transform="rotate(119.509 32.708 32.708)"/><circle cx="14" cy="39" r="1"/><circle cx="49" cy="12" r="1"/><circle cx="6.5" cy="40.5" r=".5"/><circle cx="11.5" cy="45.5" r=".5"/><circle cx="53.5" cy="16.5" r=".5"/><circle cx="50.5" cy="23.5" r=".5"/><defs><linearGradient id="vpaint0_linear" x1="39.238" y1="23.55" x2="39.238" y2="32.937" gradientUnits="userSpaceOnUse"><stop stop-color="#4DB68D"/><stop offset="1" stop-color="#8CC3AE"/></linearGradient><linearGradient id="vpaint1_linear" x1="27.156" y1="21.498" x2="27.156" y2="26.744" gradientUnits="userSpaceOnUse"><stop stop-color="#4DB68D"/><stop offset="1" stop-color="#8CC3AE"/></linearGradient><linearGradient id="vpaint2_linear" x1="28.893" y1="27.584" x2="28.893" y2="44.502" gradientUnits="userSpaceOnUse"><stop stop-color="#4DB68D"/><stop offset="1" stop-color="#8CC3AE"/></linearGradient><linearGradient id="vpaint3_linear" x1="32.708" y1="8.708" x2="32.708" y2="56.708" gradientUnits="userSpaceOnUse"><stop stop-color="#4DB88D"/><stop offset="1" stop-color="#2C2E59"/></linearGradient></defs></svg><svg viewBox="0 0 30 24" id="twitter" xmlns="http://www.w3.org/2000/svg"><path d="M9.774 23.263c10.614 0 16.418-8.793 16.418-16.418 0-.25-.005-.499-.017-.746a11.742 11.742 0 002.879-2.988c-1.034.46-2.147.769-3.314.909A5.792 5.792 0 0028.277.828a11.574 11.574 0 01-3.664 1.4A5.771 5.771 0 0014.78 7.49 16.383 16.383 0 012.886 1.463a5.757 5.757 0 00-.781 2.9 5.766 5.766 0 002.567 4.803 5.725 5.725 0 01-2.613-.721v.073a5.772 5.772 0 004.629 5.657 5.792 5.792 0 01-2.606.099 5.777 5.777 0 005.39 4.008 11.577 11.577 0 01-7.167 2.47c-.465 0-.925-.027-1.376-.08a16.334 16.334 0 008.845 2.592"/></svg><svg viewBox="0 0 20 25" id="user" xmlns="http://www.w3.org/2000/svg"><path d="M17.616 17.426c.583.281 1.036.648 1.36 1.102.324.453.551.928.68 1.425.13.497.217.961.26 1.393.043.432.043.767 0 1.005-.043.237-.13.41-.26.518-.302.26-.669.486-1.1.68-.433.195-.908.368-1.426.519-.519.15-1.048.27-1.588.356l-1.587.26c-1.21.15-2.484.237-3.823.258a35.689 35.689 0 01-3.856-.259 22.03 22.03 0 01-1.587-.259 27.72 27.72 0 01-1.555-.356 8.01 8.01 0 01-1.426-.519 6.043 6.043 0 01-1.134-.68c-.13-.108-.21-.275-.243-.502C.3 22.14.294 21.8.315 21.347c.022-.454.108-.919.26-1.394.15-.475.377-.95.68-1.425.302-.476.756-.843 1.36-1.102l2.01-.907a12.27 12.27 0 001.684-.907c.497-.324.875-.702 1.134-1.134.259-.432.4-.95.42-1.555v-.194a2.765 2.765 0 01-.81-1.07L6.31 9.91c-.389-.431-.68-.83-.875-1.198-.173-.302-.26-.583-.26-.842 0-.26.184-.389.552-.389-.13-.82-.162-1.555-.098-2.203.044-.54.173-1.037.39-1.49.215-.454.604-.68 1.166-.68a2.94 2.94 0 01.55-1.102c.238-.281.573-.54 1.005-.778C9.17.99 9.743.882 10.456.903c.648 0 1.177.14 1.587.421.41.281.767.605 1.07.972.302.368.55.724.745 1.07.194.345.41.593.647.745a.866.866 0 01.227.162c.065.064.065.15 0 .259-.086.302-.173.745-.259 1.328a4.493 4.493 0 00.032 1.62c.39.022.573.151.551.389-.021.237-.13.518-.324.842a7.599 7.599 0 01-.907 1.199c-.151.389-.27.723-.356 1.004-.087.281-.184.54-.292.778a2.47 2.47 0 01-.324.55 5.07 5.07 0 01-.486.486v.195c0 .626.14 1.145.421 1.555.281.41.67.788 1.167 1.134a9.293 9.293 0 001.652.907c.605.26 1.274.562 2.009.907z"/></svg><svg viewBox="0 0 25 24" id="volume" xmlns="http://www.w3.org/2000/svg"><path d="M11.68 5.12L6.791 9.03h-3.91v5.864h3.91l4.887 3.91V5.118zM19.567 5.05a9.774 9.774 0 010 13.821m-3.45-10.37a4.887 4.887 0 010 6.91"/></svg></svg>