<?xml version="1.0" encoding="utf-8"?><svg viewBox="0 0 512 512" xmlns="http://www.w3.org/2000/svg" xmlns:xlink="http://www.w3.org/1999/xlink"><style>:root>svg{display:none}:root>svg:target{display:block}</style><svg viewBox="0 0 61 61" id="book" xmlns="http://www.w3.org/2000/svg"><mask id="aa"><path d="M37.502 6.94l-25.971.801s-4.44-1.212-5.593 3.536c-.477 1.96.038 3.631.038 3.631l11.007 35.518c1.086 3.255 5.28 2.401 5.28 2.401l31.8-6.942-.802-1.338c.064-1.358.502-3.794 2.696-5.153.05-.03.07-.084.103-.129l.999-.144-19.557-32.18zm-17.25 15.013l-2.711-7.967 19.279-.948 3.66 6.627-20.229 2.288zm32.716 19.755c-.16.404-.29.805-.376 1.19L31.774 47.22l20.663-3.398c-.017.15-.036.3-.045.436l-26.735 5.743 26.714-4.835.001.06-29.788 6.281c-.014.005-1.39.357-2.61.06-1.207-.293-1.808-1.095-1.84-2.451-.087-3.487 5.37-4.125 5.451-4.134l30.589-5.25a6.148 6.148 0 00-.72.996l-19.58 4.001 19.094-3.022"/></mask><path d="M37.502 6.94l-25.971.801s-4.44-1.212-5.593 3.536c-.477 1.96.038 3.631.038 3.631l11.007 35.518c1.086 3.255 5.28 2.401 5.28 2.401l31.8-6.942-.802-1.338c.064-1.358.502-3.794 2.696-5.153.05-.03.07-.084.103-.129l.999-.144-19.557-32.18zm-17.25 15.013l-2.711-7.967 19.279-.948 3.66 6.627-20.229 2.288zm32.716 19.755c-.16.404-.29.805-.376 1.19L31.774 47.22l20.663-3.398c-.017.15-.036.3-.045.436l-26.735 5.743 26.714-4.835.001.06-29.788 6.281c-.014.005-1.39.357-2.61.06-1.207-.293-1.808-1.095-1.84-2.451-.087-3.487 5.37-4.125 5.451-4.134l30.589-5.25a6.148 6.148 0 00-.72.996l-19.58 4.001 19.094-3.022"/><path d="M37.502 6.94l.854-.52-.303-.497-.582.018.03 1zm-25.971.801l-.263.965.144.04.15-.005-.031-1zm-5.555 7.167l-.956.294v.002l.956-.296zm11.007 35.518l-.956.296.003.01.004.01.949-.316zm5.28 2.401l.2.98.007-.001.007-.002-.213-.977zm31.8-6.942l.213.977 1.36-.297-.716-1.194-.857.514zm-.802-1.338l-.999-.048-.014.302.155.26.858-.514zm2.696-5.153l.527.85.003-.002-.53-.848zm.103-.129l-.143-.99-.414.06-.249.337.806.593zm.999-.144l.143.99 1.497-.216-.786-1.293-.854.519zM17.54 13.986l-.05-1-1.324.066.427 1.256.947-.322zm19.279-.948l.875-.484-.301-.546-.623.031.049.999zm3.66 6.627l.113.994 1.485-.169-.723-1.309-.875.484zm12.112 23.232l.203.98.63-.132.142-.628-.975-.22zm-20.818 4.324l-.204-.979.366 1.966-.162-.987zm20.663-3.398l.994.113.15-1.314-1.306.215.162.986zm-.045.436l.21.978.738-.159.05-.753-.998-.066zm-26.735 5.743l-.21-.978.388 1.962-.178-.984zm26.714-4.835l1-.014-.017-1.18-1.161.21.178.984zm.001.06l.206.978.805-.17-.011-.822-1 .014zm-29.788 6.281l-.206-.978-.061.013-.06.02.327.945zm-4.45-2.392l.999-.024-1 .025zm5.451-4.133l.109.994.03-.004.03-.005-.169-.986zm30.589-5.25l.74.673 1.952-2.15-2.861.492.169.985zm-.72.996l.2.98.432-.089.226-.378-.858-.513zm-19.58 4.001l-.2-.98.357 1.968-.157-.988zm3.597-38.79l-25.97.802.06 1.999 25.971-.801-.061-2zM11.53 7.742l.262-.965h-.003l-.007-.003a1.982 1.982 0 00-.073-.018 6.278 6.278 0 00-.8-.125 6.287 6.287 0 00-1.969.124A4.95 4.95 0 006.607 8c-.736.705-1.314 1.697-1.641 3.042l1.943.472c.25-1.029.66-1.665 1.081-2.07a2.951 2.951 0 011.403-.74 4.29 4.29 0 011.336-.081 4.286 4.286 0 01.523.08l.02.005s.001 0 0 0h-.001-.002v-.001l.262-.965zm-6.565 3.3a8.572 8.572 0 00.05 4.147l.002.009.001.003v.001l.957-.293c.955-.294.956-.293.956-.293v.001a.028.028 0 000 .002.48.48 0 01-.01-.042 6.292 6.292 0 01-.148-.852 6.573 6.573 0 01.135-2.21l-1.943-.473zm.054 4.163l11.007 35.518 1.91-.592L6.932 14.612l-1.91.592zm11.014 35.538c.706 2.116 2.45 2.866 3.835 3.092a7.83 7.83 0 002.585-.025l.005-.001h.003l-.198-.98-.199-.98.002-.001h-.002l-.022.004-.105.017a5.833 5.833 0 01-1.746-.008c-.985-.16-1.88-.611-2.261-1.75l-1.897.633zm6.443 3.062l31.799-6.943-.427-1.953-31.798 6.942.426 1.954zm32.443-8.433l-.801-1.339-1.716 1.028.802 1.338 1.715-1.027zm-.66-.777c.06-1.267.465-3.26 2.224-4.35l-1.053-1.7c-2.63 1.629-3.1 4.507-3.169 5.955l1.998.095zm2.227-4.352a1.19 1.19 0 00.384-.39l.009-.014.005-.008-.02.028-1.61-1.185a1.51 1.51 0 00-.066.097l-.002.003a.811.811 0 01.24-.227l1.06 1.696zm-.284.013l.998-.144-.285-1.98-.999.145.286 1.979zm1.71-1.653L38.356 6.42 36.647 7.46l19.557 32.18 1.71-1.038zm-36.715-16.97l-2.71-7.968-1.894.644 2.71 7.968 1.894-.645zm-3.608-6.648l19.279-.947-.098-1.998-19.28.948.099 1.998zm18.354-1.463l3.66 6.627 1.751-.967-3.66-6.627-1.75.967zm4.424 5.15l-20.23 2.289.226 1.987 20.229-2.288-.225-1.988zm11.671 22.667a9.02 9.02 0 00-.423 1.34l1.951.439c.073-.323.185-.673.33-1.04l-1.858-.74zm.35.58L31.57 46.242l.407 1.958 20.818-4.324-.407-1.958zm-20.453 6.29l20.663-3.398-.324-1.973-20.664 3.397.325 1.974zm19.508-4.498c-.015.13-.039.315-.05.483l1.996.133c.007-.107.021-.22.04-.39l-1.986-.226zm.738-.429l-26.735 5.743.42 1.956 26.735-5.743-.42-1.956zm-26.347 7.705l26.714-4.835-.356-1.968-26.714 4.835.356 1.968zm25.536-5.805l.001.06 2-.028-.001-.06-2 .028zm.795-.933L22.378 50.53l.413 1.957 29.787-6.282-.412-1.957zm-29.908 6.315c.061-.021.104-.029.036-.013a6.116 6.116 0 01-.665.107c-.444.046-.965.05-1.42-.06l-.472 1.943c.767.186 1.544.163 2.097.106a8.077 8.077 0 00.908-.147c.015-.003.104-.023.17-.046l-.654-1.89zm-2.048.034c-.431-.105-.66-.274-.797-.456-.143-.191-.267-.508-.28-1.049l-2 .049c.02.816.214 1.578.68 2.2.475.632 1.15 1.01 1.924 1.2l.473-1.944zm-1.077-1.505c-.027-1.098.79-1.873 2.064-2.43a9.43 9.43 0 011.706-.544c.48-.106.8-.142.79-.141l-.216-1.989c-.077.009-1.58.184-3.082.841-1.452.636-3.32 1.924-3.261 4.312l1.999-.05zm4.622-3.124l30.588-5.25-.338-1.97-30.589 5.249.338 1.971zm29.679-6.907a7.13 7.13 0 00-.838 1.154l1.716 1.027c.187-.311.376-.588.602-.836l-1.48-1.345zm-.18.688l-19.58 4.001.4 1.96 19.58-4.002-.4-1.96zm-19.223 5.969l19.094-3.023-.313-1.975-19.094 3.022.313 1.976z" mask="url(#aa)"/></svg><svg viewBox="0 0 66 66" id="book-heart" xmlns="http://www.w3.org/2000/svg"><path d="M27.012 38H42V24c0-1.103-.897-2-2-2H27c-1.206 0-3 .799-3 3v14c0 2.201 1.794 3 3 3h15v-2H27.012C26.55 39.988 26 39.806 26 39c0-.101.009-.191.024-.273.112-.576.584-.717.988-.727zm2.636-10.358a2.224 2.224 0 013.125 0l.224.219.223-.219a2.225 2.225 0 013.126 0 2.128 2.128 0 010 3.069L32.998 34l-3.349-3.289a2.128 2.128 0 01-.001-3.069z"/><circle cx="32.708" cy="32.708" r="23.5" transform="rotate(119.509 32.708 32.708)"/><circle cx="13" cy="13" r="1"/><circle cx="48" cy="46" r="1"/><circle cx="17.5" cy="17.5" r=".5"/><circle cx="9.5" cy="18.5" r=".5"/><circle cx="12.5" cy="24.5" r=".5"/><circle cx="43.5" cy="50.5" r=".5"/><circle cx="50.5" cy="52.5" r=".5"/><defs><linearGradient id="bpaint0_linear" x1="33" y1="22" x2="33" y2="42" gradientUnits="userSpaceOnUse"><stop stop-color="#B0A04E"/><stop offset="1" stop-color="#CCC18A"/></linearGradient><linearGradient id="bpaint1_linear" x1="32.708" y1="8.708" x2="32.708" y2="56.708" gradientUnits="userSpaceOnUse"><stop stop-color="#B8A74D"/><stop offset="1" stop-color="#2C2E59"/></linearGradient></defs></svg><svg viewBox="0 0 6 5" id="down" xmlns="http://www.w3.org/2000/svg"><path d="M3 5L5.598.5H.402L3 5z"/></svg><svg viewBox="0 0 16 30" id="facebook" xmlns="http://www.w3.org/2000/svg"><path d="M12.997 4.981h2.739V.211C15.263.146 13.638 0 11.746 0c-3.95 0-6.654 2.484-6.654 7.049v4.2H.734v5.333h4.358V30h5.342V16.584h4.182l.663-5.333h-4.846V7.577c.001-1.541.416-2.596 2.564-2.596z"/></svg><svg viewBox="0 0 24 24" id="globe" xmlns="http://www.w3.org/2000/svg"><path d="M12 22c5.523 0 10-4.477 10-10S17.523 2 12 2 2 6.477 2 12s4.477 10 10 10zM2 12h20"/><path d="M12 2a15.3 15.3 0 014 10 15.3 15.3 0 01-4 10 15.3 15.3 0 01-4-10 15.3 15.3 0 014-10z"/></svg><svg viewBox="0 0 30 30" id="instagram" xmlns="http://www.w3.org/2000/svg"><path d="M20.625 0H9.375C4.198 0 0 4.198 0 9.375v11.25C0 25.802 4.198 30 9.375 30h11.25C25.802 30 30 25.802 30 20.625V9.375C30 4.198 25.802 0 20.625 0zm6.563 20.625a6.57 6.57 0 01-6.563 6.563H9.375a6.57 6.57 0 01-6.563-6.563V9.375a6.57 6.57 0 016.563-6.563h11.25a6.57 6.57 0 016.563 6.563v11.25z"/><path d="M15 7.5a7.5 7.5 0 10.001 15 7.5 7.5 0 000-15zm0 12.187A4.694 4.694 0 0110.313 15 4.693 4.693 0 0115 10.312 4.693 4.693 0 0119.688 15 4.694 4.694 0 0115 19.687zM23.063 7.937a1 1 0 100-1.998 1 1 0 000 1.998z"/></svg><svg viewBox="0 0 68 66" id="lamp" xmlns="http://www.w3.org/2000/svg"><g clip-path="url(#gclip0)"><path d="M10.406 16.753a2.197 2.197 0 00.472 3.07l1.305.957a2.197 2.197 0 102.598-3.543l-1.305-.956a2.197 2.197 0 00-3.07.472zM29.558 5.21a2.233 2.233 0 00-1.867 2.546l.386 2.513a2.233 2.233 0 004.414-.679l-.386-2.513a2.233 2.233 0 00-2.547-1.867zM10.211 39.97a2.233 2.233 0 00-.679-4.414l-2.638.406a2.233 2.233 0 00.679 4.414l2.638-.406zm33.79 8.494c-.19-1.236.31-2.434 1.158-3.278a16.135 16.135 0 003.566-5.365c1.056-2.567 1.367-5.268.93-8.113-.663-4.308-2.745-7.74-6.262-10.319-3.517-2.58-7.415-3.534-11.724-2.871-4.308.662-7.739 2.744-10.318 6.262-2.58 3.517-3.534 7.415-2.872 11.723.438 2.848 1.527 5.335 3.267 7.473a15.178 15.178 0 005.03 4.038c1.084.544 1.943 1.546 2.136 2.8l.964 6.272a4.5 4.5 0 005.132 3.764l6.198-.954a4.5 4.5 0 003.764-5.132l-.969-6.3zm11.91-17.782a2.233 2.233 0 002.546 1.867l2.639-.406a2.233 2.233 0 10-.68-4.414l-2.638.406a2.233 2.233 0 00-1.867 2.546zm-8.634-18.455a2.169 2.169 0 003.481 2.587l.974-1.292a2.18 2.18 0 10-3.498-2.6l-.957 1.304z"/></g><defs><clipPath id="gclip0"><path transform="scale(1 -1) rotate(8.744 432.075 23.914)" d="M0 0h60v56.949H0z"/></clipPath></defs></svg><svg viewBox="0 0 66 66" id="people" xmlns="http://www.w3.org/2000/svg"><path d="M36.6 27.2a3.6 3.6 0 11-7.2 0 3.6 3.6 0 017.2 0zM42.6 29.6a2.4 2.4 0 11-4.8 0 2.4 2.4 0 014.8 0zM37.8 38a4.8 4.8 0 00-9.6 0v3.6h9.6V38zM28.2 29.6a2.4 2.4 0 11-4.8 0 2.4 2.4 0 014.8 0zM40.2 41.6V38a7.168 7.168 0 00-.9-3.487A3.606 3.606 0 0143.8 38v3.6h-3.6zM26.7 34.513A7.167 7.167 0 0025.8 38v3.6h-3.6V38a3.6 3.6 0 014.5-3.487z"/><circle cx="32.708" cy="32.708" r="23.5" transform="rotate(119.509 32.708 32.708)"/><circle cx="7" cy="42" r="1"/><circle cx="20" cy="47" r="1"/><circle cx="24" cy="7" r="1"/><circle cx="16.5" cy="16.5" r=".5"/><circle cx="18.5" cy="10.5" r=".5"/><circle cx="12.5" cy="48.5" r=".5"/><defs><linearGradient id="hpaint0_linear" x1="33" y1="23.6" x2="33" y2="30.8" gradientUnits="userSpaceOnUse"><stop stop-color="#EF777B"/><stop offset="1" stop-color="#F08F92"/></linearGradient><linearGradient id="hpaint1_linear" x1="40.2" y1="27.2" x2="40.2" y2="32" gradientUnits="userSpaceOnUse"><stop stop-color="#EF777B"/><stop offset="1" stop-color="#F08F92"/></linearGradient><linearGradient id="hpaint2_linear" x1="33" y1="33.2" x2="33" y2="41.6" gradientUnits="userSpaceOnUse"><stop stop-color="#EF777B"/><stop offset="1" stop-color="#F08F92"/></linearGradient><linearGradient id="hpaint3_linear" x1="25.8" y1="27.2" x2="25.8" y2="32" gradientUnits="userSpaceOnUse"><stop stop-color="#EF777B"/><stop offset="1" stop-color="#F08F92"/></linearGradient><linearGradient id="hpaint4_linear" x1="41.55" y1="34.4" x2="41.55" y2="41.6" gradientUnits="userSpaceOnUse"><stop stop-color="#EF777B"/><stop offset="1" stop-color="#F08F92"/></linearGradient><linearGradient id="hpaint5_linear" x1="24.45" y1="34.398" x2="24.45" y2="41.6" gradientUnits="userSpaceOnUse"><stop stop-color="#EF777B"/><stop offset="1" stop-color="#F08F92"/></linearGradient><linearGradient id="hpaint6_linear" x1="32.708" y1="8.708" x2="32.708" y2="56.708" gradientUnits="userSpaceOnUse"><stop stop-color="#FF7D7D"/><stop offset="1" stop-color="#2C2E59"/></linearGradient></defs></svg><svg id="plus" version="1.1" viewBox="0 0 512 512" xml:space="preserve" xmlns="http://www.w3.org/2000/svg"><style>.ist0{fill:#231f20}</style><path class="ist0" d="M381 236H276V131c0-11-9-20-20-20s-20 9-20 20v105H131c-11 0-20 9-20 20s9 20 20 20h105v105c0 11 9 20 20 20s20-9 20-20V276h105c11 0 20-9 20-20s-9-20-20-20z"/></svg><svg viewBox="0 0 24 24" id="search" xmlns="http://www.w3.org/2000/svg"><path d="M11 19a8 8 0 100-16 8 8 0 000 16zM21 21l-4.35-4.35"/></svg><svg viewBox="0 0 66 66" id="teache" xmlns="http://www.w3.org/2000/svg"><path d="M35.142 30.243c.144 0 .282.023.415.061l2.485-3.045a.457.457 0 01.645-.067.445.445 0 01.057.625l-2.457 3.012c.167.23.267.515.267.822 0 .572-.343 1.066-.833 1.286h9.639a.64.64 0 00.64-.64V24.19a.64.64 0 00-.64-.64H33.116a.64.64 0 00-.64.64v5.323l.579.732h2.087v-.002zM27.156 26.744a2.623 2.623 0 100-5.246 2.623 2.623 0 000 5.246z"/><path d="M29.846 43.861a.64.64 0 01-.64.64h-1.077a.64.64 0 01-.64-.64v-5.368a.343.343 0 00-.686 0v5.343c0 .366-.3.666-.666.666h-1.053a.64.64 0 01-.64-.64L24.438 30.9a.318.318 0 10-.635 0v4.984a.64.64 0 01-.64.64h-.523a.64.64 0 01-.64-.64v-6.833c0-.812.658-1.468 1.468-1.468H29.3c.625 0 1.216.287 1.606.776l1.567 1.977.33.418s1.486 0 2.342.003a.64.64 0 01.64.64v.51a.64.64 0 01-.64.64h-2.772a.892.892 0 01-.701-.34l-1.168-1.502a.319.319 0 00-.251-.123h-.08a.318.318 0 00-.317.318l-.01 12.96z"/><circle cx="32.708" cy="32.708" r="23.5" transform="rotate(119.509 32.708 32.708)"/><circle cx="14" cy="39" r="1"/><circle cx="49" cy="12" r="1"/><circle cx="6.5" cy="40.5" r=".5"/><circle cx="11.5" cy="45.5" r=".5"/><circle cx="53.5" cy="16.5" r=".5"/><circle cx="50.5" cy="23.5" r=".5"/><defs><linearGradient id="kpaint0_linear" x1="39.238" y1="23.55" x2="39.238" y2="32.937" gradientUnits="userSpaceOnUse"><stop stop-color="#4DB68D"/><stop offset="1" stop-color="#8CC3AE"/></linearGradient><linearGradient id="kpaint1_linear" x1="27.156" y1="21.498" x2="27.156" y2="26.744" gradientUnits="userSpaceOnUse"><stop stop-color="#4DB68D"/><stop offset="1" stop-color="#8CC3AE"/></linearGradient><linearGradient id="kpaint2_linear" x1="28.893" y1="27.584" x2="28.893" y2="44.502" gradientUnits="userSpaceOnUse"><stop stop-color="#4DB68D"/><stop offset="1" stop-color="#8CC3AE"/></linearGradient><linearGradient id="kpaint3_linear" x1="32.708" y1="8.708" x2="32.708" y2="56.708" gradientUnits="userSpaceOnUse"><stop stop-color="#4DB88D"/><stop offset="1" stop-color="#2C2E59"/></linearGradient></defs></svg><svg viewBox="0 0 30 24" id="twitter" xmlns="http://www.w3.org/2000/svg"><path d="M9.774 23.263c10.614 0 16.418-8.793 16.418-16.418 0-.25-.005-.499-.017-.746a11.742 11.742 0 002.879-2.988c-1.034.46-2.147.769-3.314.909A5.792 5.792 0 0028.277.828a11.574 11.574 0 01-3.664 1.4A5.771 5.771 0 0014.78 7.49 16.383 16.383 0 012.886 1.463a5.757 5.757 0 00-.781 2.9 5.766 5.766 0 002.567 4.803 5.725 5.725 0 01-2.613-.721v.073a5.772 5.772 0 004.629 5.657 5.792 5.792 0 01-2.606.099 5.777 5.777 0 005.39 4.008 11.577 11.577 0 01-7.167 2.47c-.465 0-.925-.027-1.376-.08a16.334 16.334 0 008.845 2.592"/></svg></svg>